<?xml version="1.0" encoding="utf-8"?>
<svg id="master-artboard" viewBox="0 0 1096 780" version="1.0" xmlns="http://www.w3.org/2000/svg" x="0px" y="0px" width="1096px" height="780px" enable-background="new 0 0 1096 780" xmlns:xlink="http://www.w3.org/1999/xlink">
<defs>
			<path d="M 0 0 H 1096 V 780 H 0 V 0 Z" id="SVGID_1_"/>
		</defs><clipPath id="SVGID_2_">
			<use overflow="visible" xlink:href="#SVGID_1_"/>
		</clipPath><path d="M 1069.300049 319.600006 A 6 6 0 0 1 1063.300049 325.600006 A 6 6 0 0 1 1057.300049 319.600006 A 6 6 0 0 1 1063.300049 313.600006 A 6 6 0 0 1 1069.300049 319.600006 Z" fill="#616161" transform="matrix(1, 0, 0, 1, 0, 0)"/><path d="M 455.800006 454.5 A 7.2 7.2 0 0 1 448.600006 461.7 A 7.2 7.2 0 0 1 441.400006 454.5 A 7.2 7.2 0 0 1 448.600006 447.3 A 7.2 7.2 0 0 1 455.800006 454.5 Z" fill="#616161" transform="matrix(1, 0, 0, 1, 0, 0)"/><path fill="#616161" d="M698.9,665.8c-5.4,0-9.8,4.4-9.8,9.8c0,5,3.8,9.2,8.8,9.7v105.4h2V685.3c4.9-0.5,8.8-4.7,8.8-9.7&#10;&#9;&#9;&#9;&#9;C708.6,670.2,704.3,665.8,698.9,665.8z M698.9,680.2c-2.6,0-4.6-2.1-4.6-4.6c0-2.6,2.1-4.6,4.6-4.6c2.6,0,4.6,2.1,4.6,4.6&#10;&#9;&#9;&#9;&#9;C703.5,678.1,701.4,680.2,698.9,680.2z" transform="matrix(1, 0, 0, 1, 0, 0)"/><path fill="#616161" d="M1147.5,764.4h-57.3V640.6h25.1v-2h-25.1v-11.7h27.8v-2h-27.8v-90.4h33.9v-2h-33.9v-60.2h47.1v-2h-47.1&#10;&#9;&#9;&#9;&#9;v-11c2.8-0.5,5-2.9,5-5.9c0-3.3-2.7-6-6-6c-3.3,0-6,2.7-6,6c0,3,2.2,5.4,5,5.9v11h-11.5V127.6c2.8-0.5,5-2.9,5-5.9&#10;&#9;&#9;&#9;&#9;c0-3.3-2.7-6-6-6c-3.3,0-6,2.7-6,6c0,3,2.2,5.4,5,5.9v342.7h-10.3V325.6h-2v144.7h-24.8V37.6c2.8-0.5,5-2.9,5-5.9&#10;&#9;&#9;&#9;&#9;c0-3.3-2.7-6-6-6s-6,2.7-6,6c0,3,2.2,5.4,5,5.9v432.6h-20.4v-21.4c4.9-0.5,8.8-4.7,8.8-9.7c0-5.4-4.4-9.8-9.8-9.8&#10;&#9;&#9;&#9;&#9;s-9.8,4.4-9.8,9.8c0,5,3.8,9.2,8.8,9.7v21.4h-12.6V97.4c2.8-0.5,5-2.9,5-5.9c0-3.3-2.7-6-6-6s-6,2.7-6,6c0,3,2.2,5.4,5,5.9v372.9&#10;&#9;&#9;&#9;&#9;h-30.9V352.1c4.9-0.5,8.8-4.7,8.8-9.7c0-5.4-4.4-9.8-9.8-9.8c-5.4,0-9.8,4.4-9.8,9.8c0,5,3.8,9.2,8.8,9.7v118.2h-12.4v-74.1&#10;&#9;&#9;&#9;&#9;c4.9-0.5,8.8-4.7,8.8-9.7c0-5.4-4.4-9.8-9.8-9.8c-5.4,0-9.8,4.4-9.8,9.8c0,5,3.8,9.2,8.8,9.7v74.1h-11.9l0-5c2.8-0.5,5-2.9,5-5.9&#10;&#9;&#9;&#9;&#9;c0-3.3-2.7-6-6-6s-6,2.7-6,6c0,3,2.1,5.4,5,5.9l0,5h-14.8V242.5c4.9-0.5,8.8-4.7,8.8-9.7c0-5.4-4.4-9.8-9.8-9.8s-9.8,4.4-9.8,9.8&#10;&#9;&#9;&#9;&#9;c0,5,3.8,9.2,8.8,9.7v227.8h-14.1v-34.6c2.8-0.5,5-2.9,5-5.9c0-3.3-2.7-6-6-6c-3.3,0-6,2.7-6,6c0,3,2.2,5.4,5,5.9v34.6h-14.1&#10;&#9;&#9;&#9;&#9;V364.7c4.9-0.5,8.8-4.7,8.8-9.7c0-5.4-4.4-9.8-9.8-9.8s-9.8,4.4-9.8,9.8c0,5,3.8,9.2,8.8,9.7v105.5h-17V221c2.8-0.5,5-2.9,5-5.9&#10;&#9;&#9;&#9;&#9;c0-3.3-2.7-6-6-6c-3.3,0-6,2.7-6,6c0,3,2.2,5.4,5,5.9v249.3h-9.7v-92h-11v-70.6c4.9-0.5,8.8-4.7,8.8-9.7c0-5.4-4.4-9.8-9.8-9.8&#10;&#9;&#9;&#9;&#9;s-9.8,4.4-9.8,9.8c0,5,3.8,9.2,8.8,9.7v70.6h-12.6v-11.4h-72.5v-21.9c4.9-0.5,8.8-4.7,8.8-9.7c0-5.4-4.4-9.8-9.8-9.8&#10;&#9;&#9;&#9;&#9;c-5.4,0-9.8,4.4-9.8,9.8c0,5,3.8,9.2,8.8,9.7v21.9h-85.1V182.1c4.9-0.5,8.8-4.7,8.8-9.7c0-5.4-4.4-9.8-9.8-9.8s-9.8,4.4-9.8,9.8&#10;&#9;&#9;&#9;&#9;c0,5,3.8,9.2,8.8,9.7v184.7H654v11.4h-24.2v-6.3c4.9-0.5,8.8-4.7,8.8-9.7c0-5.4-4.4-9.8-9.8-9.8c-5.4,0-9.8,4.4-9.8,9.8&#10;&#9;&#9;&#9;&#9;c0,5,3.8,9.2,8.8,9.7v6.3h-25.9V275.4c4.9-0.5,8.8-4.7,8.8-9.7c0-5.4-4.4-9.8-9.8-9.8s-9.8,4.4-9.8,9.8c0,5,3.8,9.2,8.8,9.7&#10;&#9;&#9;&#9;&#9;v102.8h-73.2v116.9H514V352.8c4.9-0.5,8.8-4.7,8.8-9.7c0-5.4-4.4-9.8-9.8-9.8s-9.8,4.4-9.8,9.8c0,5,3.8,9.2,8.8,9.7v142.3h-13.7&#10;&#9;&#9;&#9;&#9;v130.3h-11.4V163.9c2.8-0.5,5-2.9,5-5.9c0-3.3-2.7-6-6-6c-3.3,0-6,2.7-6,6c0,3,2.2,5.4,5,5.9v461.5h-14.8V533&#10;&#9;&#9;&#9;&#9;c4.9-0.5,8.8-4.7,8.8-9.7c0-5.4-4.4-9.8-9.8-9.8s-9.8,4.4-9.8,9.8c0,5,3.8,9.2,8.8,9.7v92.4h-18.5V461.7h-1h-1v163.7h-17v-88.6&#10;&#9;&#9;&#9;&#9;h-11.7V385.2c2.8-0.5,5-2.9,5-5.9c0-3.3-2.7-6-6-6c-3.3,0-6,2.7-6,6c0,3,2.2,5.4,5,5.9v151.7h-23.6v-38.2&#10;&#9;&#9;&#9;&#9;c4.9-0.5,8.8-4.7,8.8-9.7c0-5.4-4.4-9.8-9.8-9.8s-9.8,4.4-9.8,9.8c0,5,3.8,9.2,8.8,9.7v38.2h-16.5V325.4c2.8-0.5,5-2.9,5-5.9&#10;&#9;&#9;&#9;&#9;c0-3.3-2.7-6-6-6c-3.3,0-6,2.7-6,6c0,3,2.2,5.4,5,5.9v211.4h-12.4v-76.1h-12.4V420c2.8-0.5,5-2.9,5-5.9c0-3.3-2.7-6-6-6&#10;&#9;&#9;&#9;&#9;c-3.3,0-6,2.7-6,6c0,3,2.2,5.4,5,5.9v40.7h-35.3v-15.3c2.8-0.5,5-2.9,5-5.9c0-3.3-2.7-6-6-6c-3.3,0-6,2.7-6,6c0,3,2.2,5.4,5,5.9&#10;&#9;&#9;&#9;&#9;v15.3h-36.1V289.8c4.9-0.5,8.8-4.7,8.8-9.7c0-5.4-4.4-9.8-9.8-9.8s-9.8,4.4-9.8,9.8c0,5,3.8,9.2,8.8,9.7v170.9h-11.2V401&#10;&#9;&#9;&#9;&#9;c2.8-0.5,5-2.9,5-5.9c0-3.3-2.7-6-6-6c-3.3,0-6,2.7-6,6c0,3,2.2,5.4,5,5.9v59.7h-34.4v18.8H212v-56c2.8-0.5,5-2.9,5-5.9&#10;&#9;&#9;&#9;&#9;c0-3.3-2.7-6-6-6c-3.3,0-6,2.7-6,6c0,3,2.2,5.4,5,5.9v56h-11.9V337.3c2.8-0.5,5-2.9,5-5.9c0-3.3-2.7-6-6-6c-3.3,0-6,2.7-6,6&#10;&#9;&#9;&#9;&#9;c0,3,2.2,5.4,5,5.9v142.2h-19.8V238.8c4.9-0.5,8.8-4.7,8.8-9.7c0-5.4-4.4-9.8-9.8-9.8s-9.8,4.4-9.8,9.8c0,5,3.8,9.2,8.8,9.7&#10;&#9;&#9;&#9;&#9;v240.7h-16.9v-20.3c2.8-0.5,5-2.9,5-5.9c0-3.3-2.7-6-6-6c-3.3,0-6,2.7-6,6c0,3,2.2,5.4,5,5.9v20.3h-16.1V322&#10;&#9;&#9;&#9;&#9;c4.9-0.5,8.8-4.7,8.8-9.7c0-5.4-4.4-9.8-9.8-9.8s-9.8,4.4-9.8,9.8c0,5,3.8,9.2,8.8,9.7v157.5H92v-40.9c4.9-0.5,8.8-4.7,8.8-9.7&#10;&#9;&#9;&#9;&#9;c0-5.4-4.4-9.8-9.8-9.8s-9.8,4.4-9.8,9.8c0,5,3.8,9.2,8.8,9.7v40.9H56.6v-341c4.9-0.5,8.8-4.7,8.8-9.7c0-5.4-4.4-9.8-9.8-9.8&#10;&#9;&#9;&#9;&#9;s-9.8,4.4-9.8,9.8c0,5,3.8,9.2,8.8,9.7v341h-24V407c2.8-0.5,5-2.9,5-5.9c0-3.3-2.7-6-6-6c-3.3,0-6,2.7-6,6c0,3,2.2,5.4,5,5.9&#10;&#9;&#9;&#9;&#9;v72.5H12.5v-291c2.8-0.5,5-2.9,5-5.9c0-3.3-2.7-6-6-6c-3.3,0-6,2.7-6,6c0,3,2.2,5.4,5,5.9v291H-0.4v2h10.9v151.2H-0.4v2h10.9&#10;&#9;&#9;&#9;&#9;v66.8H-2.3v2h12.8v25.1H-1.3v2h11.8v18.5H-3.4v2h13.9v39.6h2v-39.6h16.1v39.6h2v-39.6h24v45.8h2v-45.8h17.8v39.6h2v-39.6H90v39.6&#10;&#9;&#9;&#9;&#9;h2v-39.6h22.9v39.6h2v-39.6h20.4v37.3h2v-37.3h16.1v39.6h2v-39.6h16.9v37.3h2v-37.3h19.8v37.3h2v-37.3H210v37.3h2v-37.3h29.2&#10;&#9;&#9;&#9;&#9;v39.6h2v-39.6h14.1v37.3h2v-37.3h11.2v37.3h2v-37.3h36.1v37.3h2v-37.3h8.2V795h2v-43.9H332v37.3h2v-37.3h11.9v46.6h2v-46.6h24.8&#10;&#9;&#9;&#9;&#9;v46.6h2v-46.6h16.5v39.6h2v-39.6H404V795h2v-43.9h10.8v39.6h2v-39.6h14.8v39.6h2v-39.6h11.9v39.6h2v-39.6h18.5v39.6h2v-39.6h14.8&#10;&#9;&#9;&#9;&#9;v39.6h2v-39.6H512v39.6h2v-39.6h28v39.6h2v-39.6h10v39.6h2v-39.6h8.7v39.6h2v-39.6h10.7v39.6h2v-39.6h8.7v39.6h2v-39.6h9.7v39.6&#10;&#9;&#9;&#9;&#9;h2v-39.6h18.3v-34.4h7.6v74h2v-74h14v74h2v-74h16.8v-71.9h9.7v145.9h2V644.8h9.1v145.9h2V644.8h27.2v145.9h2V644.8h11.2v145.9h2&#10;&#9;&#9;&#9;&#9;V644.8h15.6v145.9h2V644.8h14.1v145.9h2V644.8h10.4v88.7h13.9v57.2h2v-57.2h11.2v57.2h2v-57.2H812v57.2h2v-57.2h17.8v32.9h14.6&#10;&#9;&#9;&#9;&#9;v24.2h2v-24.2h20.7v24.2h2v-24.2h17v24.2h2v-24.2h14.1v24.2h2v-24.2h14.1v24.2h2v-24.2h14.2l-0.1,24.2l2,0l0.1-24.3h12.6v24.2h2&#10;&#9;&#9;&#9;&#9;v-24.2h12.4v24.2h2v-24.2h11.4v24.2h2v-24.2h17.5v24.2h2v-24.2h12.6v24.2h2v-24.2h20.4v24.2h2v-24.2h11.6v24.2h2v-24.2h11.2v24.2&#10;&#9;&#9;&#9;&#9;h2v-24.2h10.3v24.2h2v-24.2h11.5v24.2h2v-24.2h57.3V764.4z M1009.4,439.2c0-2.6,2.1-4.6,4.6-4.6s4.6,2.1,4.6,4.6&#10;&#9;&#9;&#9;&#9;c0,2.6-2.1,4.6-4.6,4.6S1009.4,441.7,1009.4,439.2z M961.9,342.4c0-2.6,2.1-4.6,4.6-4.6c2.6,0,4.6,2.1,4.6,4.6&#10;&#9;&#9;&#9;&#9;c0,2.6-2.1,4.6-4.6,4.6C963.9,347,961.9,344.9,961.9,342.4z M947.5,386.5c0-2.6,2.1-4.6,4.6-4.6c2.6,0,4.6,2.1,4.6,4.6&#10;&#9;&#9;&#9;&#9;s-2.1,4.6-4.6,4.6C949.5,391.1,947.5,389,947.5,386.5z M916.7,232.8c0-2.6,2.1-4.6,4.6-4.6s4.6,2.1,4.6,4.6s-2.1,4.6-4.6,4.6&#10;&#9;&#9;&#9;&#9;S916.7,235.3,916.7,232.8z M884.5,355c0-2.6,2.1-4.6,4.6-4.6s4.6,2.1,4.6,4.6c0,2.6-2.1,4.6-4.6,4.6S884.5,357.5,884.5,355z&#10;&#9;&#9;&#9;&#9; M842.8,297.9c0-2.6,2.1-4.6,4.6-4.6s4.6,2.1,4.6,4.6c0,2.6-2.1,4.6-4.6,4.6S842.8,300.5,842.8,297.9z M755.7,335.2&#10;&#9;&#9;&#9;&#9;c0-2.6,2.1-4.6,4.6-4.6c2.6,0,4.6,2.1,4.6,4.6s-2.1,4.6-4.6,4.6C757.8,339.9,755.7,337.8,755.7,335.2z M668.6,172.4&#10;&#9;&#9;&#9;&#9;c0-2.6,2.1-4.6,4.6-4.6s4.6,2.1,4.6,4.6c0,2.6-2.1,4.6-4.6,4.6S668.6,174.9,668.6,172.4z M624.1,362.2c0-2.6,2.1-4.6,4.6-4.6&#10;&#9;&#9;&#9;&#9;c2.6,0,4.6,2.1,4.6,4.6c0,2.6-2.1,4.6-4.6,4.6C626.2,366.8,624.1,364.8,624.1,362.2z M596.2,265.7c0-2.6,2.1-4.6,4.6-4.6&#10;&#9;&#9;&#9;&#9;s4.6,2.1,4.6,4.6c0,2.6-2.1,4.6-4.6,4.6S596.2,268.3,596.2,265.7z M508.3,343.1c0-2.6,2.1-4.6,4.6-4.6s4.6,2.1,4.6,4.6&#10;&#9;&#9;&#9;&#9;c0,2.6-2.1,4.6-4.6,4.6S508.3,345.6,508.3,343.1z M464.4,523.3c0-2.6,2.1-4.6,4.6-4.6c2.6,0,4.6,2.1,4.6,4.6&#10;&#9;&#9;&#9;&#9;c0,2.6-2.1,4.6-4.6,4.6C466.5,528,464.4,525.9,464.4,523.3z M387.6,488.9c0-2.6,2.1-4.6,4.6-4.6c2.6,0,4.6,2.1,4.6,4.6&#10;&#9;&#9;&#9;&#9;c0,2.6-2.1,4.6-4.6,4.6C389.7,493.6,387.6,491.5,387.6,488.9z M266.8,280.1c0-2.6,2.1-4.6,4.6-4.6c2.6,0,4.6,2.1,4.6,4.6&#10;&#9;&#9;&#9;&#9;c0,2.6-2.1,4.6-4.6,4.6C268.9,284.7,266.8,282.7,266.8,280.1z M170.6,229.1c0-2.6,2.1-4.6,4.6-4.6c2.6,0,4.6,2.1,4.6,4.6&#10;&#9;&#9;&#9;&#9;s-2.1,4.6-4.6,4.6C172.7,233.8,170.6,231.7,170.6,229.1z M133.6,312.3c0-2.6,2.1-4.6,4.6-4.6c2.6,0,4.6,2.1,4.6,4.6&#10;&#9;&#9;&#9;&#9;c0,2.6-2.1,4.6-4.6,4.6C135.7,316.9,133.6,314.9,133.6,312.3z M86.3,428.9c0-2.6,2.1-4.6,4.6-4.6s4.6,2.1,4.6,4.6&#10;&#9;&#9;&#9;&#9;s-2.1,4.6-4.6,4.6S86.3,431.5,86.3,428.9z M50.9,128.8c0-2.6,2.1-4.6,4.6-4.6c2.6,0,4.6,2.1,4.6,4.6c0,2.6-2.1,4.6-4.6,4.6&#10;&#9;&#9;&#9;&#9;C53,133.5,50.9,131.4,50.9,128.8z M1088.2,638.6h-11.5v-11.7h11.5V638.6z M685.4,504.4c2.8-0.5,5-2.9,5-5.9c0-3.3-2.7-6-6-6&#10;&#9;&#9;&#9;&#9;c-3.3,0-6,2.7-6,6c0,3,2.2,5.4,5,5.9v54.4h-9.1V454.4h38.3v104.4h-27.2V504.4z M660.6,642.8h-14.8V535.9c4.9-0.6,8.7-4.7,8.7-9.7&#10;&#9;&#9;&#9;&#9;c0-5.4-4.4-9.8-9.8-9.8s-9.8,4.4-9.8,9.8c0,5.1,3.9,9.3,8.9,9.7v106.8h-14V497.1H656v-42.8h16.3v104.4h-11.7V642.8z M644.6,530.9&#10;&#9;&#9;&#9;&#9;c-2.6,0-4.6-2.1-4.6-4.6c0-2.6,2.1-4.6,4.6-4.6s4.6,2.1,4.6,4.6C649.2,528.8,647.2,530.9,644.6,530.9z M360.3,693.8h12.4v20.9&#10;&#9;&#9;&#9;&#9;h-12.4V693.8z M242.2,559.9c-2.6,0-4.6-2.1-4.6-4.6s2.1-4.6,4.6-4.6c2.6,0,4.6,2.1,4.6,4.6S244.8,559.9,242.2,559.9z M243.2,565&#10;&#9;&#9;&#9;&#9;c4.9-0.5,8.8-4.7,8.8-9.7c0-5.4-4.4-9.8-9.8-9.8s-9.8,4.4-9.8,9.8c0,5,3.8,9.2,8.8,9.7v126.8H228v36.8H212v-93.9h12.9v-95.9h32.4&#10;&#9;&#9;&#9;&#9;v153h-14.1V565z M90,701.5H76.3v-66.8H90V701.5z M92,634.7h5.2v66.8H92V634.7z M74.3,701.5H56.6v-66.8h17.8V701.5z M54.6,701.5&#10;&#9;&#9;&#9;&#9;h-24v-66.8h24V701.5z M54.6,703.5v25.1h-24v-25.1H54.6z M56.6,703.5h17.8v25.1H56.6V703.5z M76.3,703.5H90v25.1H76.3V703.5z&#10;&#9;&#9;&#9;&#9; M92,703.5h7.2v-68.8h15.7v93.9H92V703.5z M210,632.7h-11.9v-93.9H210V632.7z M212,538.8h10.9v93.9H212V538.8z M196.1,632.7&#10;&#9;&#9;&#9;&#9;h-19.8v-93.9h19.8V632.7z M174.2,632.7h-16.9v-93.9h16.9V632.7z M155.3,632.7h-16.1v-93.9h16.1V632.7z M137.3,632.7h-20.4v-65.8&#10;&#9;&#9;&#9;&#9;c4.9-0.5,8.8-4.7,8.8-9.7c0-5.4-4.4-9.8-9.8-9.8s-9.8,4.4-9.8,9.8c0,5,3.8,9.2,8.8,9.7v65.8H99.2v-93.9h38.1V632.7z M115.8,561.9&#10;&#9;&#9;&#9;&#9;c-2.6,0-4.6-2.1-4.6-4.6s2.1-4.6,4.6-4.6c2.6,0,4.6,2.1,4.6,4.6S118.4,561.9,115.8,561.9z M116.8,634.7h20.4v93.9h-20.4V634.7z&#10;&#9;&#9;&#9;&#9; M139.3,634.7h16.1v93.9h-16.1V634.7z M157.3,634.7h16.9v93.9h-16.9V634.7z M176.2,634.7h19.8v93.9h-19.8V634.7z M198.1,634.7&#10;&#9;&#9;&#9;&#9;H210v93.9h-11.9V634.7z M289,536.8h-16.5v-55.3H289V536.8z M270.5,536.8h-11.2v-55.3h11.2V536.8z M257.3,536.8h-32.4v-55.3h32.4&#10;&#9;&#9;&#9;&#9;V536.8z M259.3,538.8h11.2v153h-11.2V538.8z M272.5,538.8H289v135.6h19.5v17.4h-36.1V538.8z M345.9,672.4H334v-40.7&#10;&#9;&#9;&#9;&#9;c4.9-0.5,8.8-4.7,8.8-9.7c0-5.4-4.4-9.8-9.8-9.8s-9.8,4.4-9.8,9.8c0,5,3.8,9.2,8.8,9.7v40.7h-11.2V561c2.8-0.5,5-2.9,5-5.9&#10;&#9;&#9;&#9;&#9;c0-3.3-2.7-6-6-6c-3.3,0-6,2.7-6,6c0,3,2.2,5.4,5,5.9v111.4h-8.2V538.8h35.3V672.4z M347.9,538.8h10.4v133.6h-10.4V538.8z&#10;&#9;&#9;&#9;&#9; M333,626.6c-2.6,0-4.6-2.1-4.6-4.6s2.1-4.6,4.6-4.6c2.6,0,4.6,2.1,4.6,4.6S335.5,626.6,333,626.6z M308.5,672.4H291V538.8h17.5&#10;&#9;&#9;&#9;&#9;V672.4z M310.5,674.4h8.2v17.4h-8.2V674.4z M320.8,674.4H332v17.4h-11.2V674.4z M334,674.4h11.9v17.4H334V674.4z M347.9,674.4&#10;&#9;&#9;&#9;&#9;h10.4v17.4h-10.4V674.4z M360.3,674.4h12.4v17.4h-12.4V674.4z M500.3,627.4H512v64.4h-25.1v-17.4h13.4V627.4z M528.6,497.1H542&#10;&#9;&#9;&#9;&#9;v194.7h-28v-64.4h14.6V497.1z M588.1,691.8h-8.7V566.2c2.8-0.5,5-2.9,5-5.9c0-3.3-2.7-6-6-6c-3.3,0-6,2.7-6,6c0,3,2.2,5.4,5,5.9&#10;&#9;&#9;&#9;&#9;v125.6h-10.7V497.1h21.4V691.8z M590.1,497.1h9.7v194.7h-9.7V497.1z M564.7,691.8h-8.7v-56.6c2.8-0.5,5-2.9,5-5.9&#10;&#9;&#9;&#9;&#9;c0-3.3-2.7-6-6-6c-3.3,0-6,2.7-6,6c0,3,2.2,5.4,5,5.9v56.6h-10V497.1h20.7V691.8z M484.9,691.8h-14.8v-17.4h14.8V691.8z&#10;&#9;&#9;&#9;&#9; M468.1,691.8h-18.5v-17.4h18.5V691.8z M447.6,691.8h-11.9v-17.4h11.9V691.8z M433.7,691.8h-14.8v-17.4h14.8V691.8z M416.8,691.8&#10;&#9;&#9;&#9;&#9;H406v-17.4h10.8V691.8z M404,691.8h-10.8v-17.4H404V691.8z M391.2,691.8h-16.5v-17.4h16.5V691.8z M374.7,693.8h16.5v20.9h-16.5&#10;&#9;&#9;&#9;&#9;V693.8z M393.2,693.8H404v20.9h-10.8V693.8z M406,693.8h10.8v20.9H406V693.8z M418.8,693.8h14.8v20.9h-14.8V693.8z M435.7,693.8&#10;&#9;&#9;&#9;&#9;h11.9v20.9h-11.9V693.8z M449.6,693.8h18.5v20.9h-18.5V693.8z M470.1,693.8h14.8v20.9h-14.8V693.8z M486.9,693.8H512v20.9h-25.1&#10;&#9;&#9;&#9;&#9;V693.8z M514,693.8h28v20.9h-28V693.8z M544,693.8h10v20.9h-10V693.8z M555.9,693.8h8.7v20.9h-8.7V693.8z M566.7,693.8h10.7v20.9&#10;&#9;&#9;&#9;&#9;h-10.7V693.8z M579.4,693.8h8.7v20.9h-8.7V693.8z M590.1,693.8h9.7v20.9h-9.7V693.8z M601.8,693.8h9.5v-49h6.8v69.9h-16.3V693.8z&#10;&#9;&#9;&#9;&#9; M609.3,642.8v49h-7.5V497.1h16.3v145.6H609.3z M620.1,497.1h7.6v145.6h-7.6V497.1z M627.7,495.1h-7.6v-40.8h7.6V495.1z&#10;&#9;&#9;&#9;&#9; M629.7,454.4H654v40.8h-24.2V454.4z M745.3,395.9c2.8-0.5,5-2.9,5-5.9c0-3.3-2.7-6-6-6c-3.3,0-6,2.7-6,6c0,3,2.2,5.4,5,5.9v56.5&#10;&#9;&#9;&#9;&#9;h-28.7v-24.7c4.9-0.5,8.8-4.7,8.8-9.7c0-5.4-4.4-9.8-9.8-9.8c-5.4,0-9.8,4.4-9.8,9.8c0,5,3.8,9.2,8.8,9.7v24.7h-38.3v-72.1h85.1&#10;&#9;&#9;&#9;&#9;v72.1h-14.1V395.9z M713.5,422.6c-2.6,0-4.6-2.1-4.6-4.6s2.1-4.6,4.6-4.6c2.6,0,4.6,2.1,4.6,4.6S716.1,422.6,713.5,422.6z&#10;&#9;&#9;&#9;&#9; M672.3,452.4H656v-72.1h16.3V452.4z M714.5,454.4h28.7v104.4h-28.7V454.4z M745.3,454.4h14.1v104.4h-14.1V454.4z M761.4,454.4&#10;&#9;&#9;&#9;&#9;h10.4v104.4h-10.4V454.4z M761.4,452.4v-72.1h70.5v90H814v-60.2c4.9-0.5,8.8-4.7,8.8-9.7c0-5.4-4.4-9.8-9.8-9.8s-9.8,4.4-9.8,9.8&#10;&#9;&#9;&#9;&#9;c0,5,3.8,9.2,8.8,9.7v60.2h-24.3v-26.1h-1c4,0,7.2-3.2,7.2-7.2c0-4-3.2-7.2-7.2-7.2c-4,0-7.2,3.2-7.2,7.2c0,4,3.2,7.2,7.2,7.2h-1&#10;&#9;&#9;&#9;&#9;v26.1v88.6h-11.9V452.4H761.4z M813,405c-2.6,0-4.6-2.1-4.6-4.6c0-2.6,2.1-4.6,4.6-4.6s4.6,2.1,4.6,4.6&#10;&#9;&#9;&#9;&#9;C817.7,402.9,815.6,405,813,405z M785.7,560.8v82h-11.9v-82H785.7z M787.7,560.8v-88.6H812v60.2h-16.1v110.3h-8.2V560.8z&#10;&#9;&#9;&#9;&#9; M814,472.2h17.8v60.2H814V472.2z M833.8,472.2h12.6v60.2h-12.6V472.2z M848.4,472.2h9v60.2h-9V472.2z M846.4,534.4v197.1h-12.6&#10;&#9;&#9;&#9;&#9;V534.4H846.4z M848.4,534.4h9v26.3h11.7v170.7h-20.7V534.4z M1062.3,624.8h-11.2v-8.6c4.9-0.5,8.8-4.7,8.8-9.7&#10;&#9;&#9;&#9;&#9;c0-5.4-4.4-9.8-9.8-9.8s-9.8,4.4-9.8,9.8c0,5,3.8,9.2,8.8,9.7v8.6h-11.6v-90.4h24.8V624.8z M1064.3,534.4h10.3v90.4h-10.3V534.4z&#10;&#9;&#9;&#9;&#9; M1050.1,611.1c-2.6,0-4.6-2.1-4.6-4.6s2.1-4.6,4.6-4.6s4.6,2.1,4.6,4.6S1052.7,611.1,1050.1,611.1z M1035.5,624.8h-9.2v-66&#10;&#9;&#9;&#9;&#9;h-11.2v-24.3h20.4V624.8z M1013.1,558.8h-12.6v-24.3h12.6V558.8z M998.4,558.8h-17.5v-24.3h17.5V558.8z M978.9,558.8h-11.4v-24.3&#10;&#9;&#9;&#9;&#9;h11.4V558.8z M965.5,558.8h-12.4v-24.3h12.4V558.8z M951.1,558.8H939l0.1-24.3h12.1V558.8z M937,558.8h-14.6v-24.3H937L937,558.8&#10;&#9;&#9;&#9;&#9;z M920.4,558.8h-14.1v-24.3h14.1V558.8z M904.3,558.8h-14.1v-24.3h14.1V558.8z M888.2,558.8h-17v-24.3h17V558.8z M869.1,558.8&#10;&#9;&#9;&#9;&#9;h-9.7v-24.3h9.7V558.8z M871.1,560.8h17v170.7h-17V560.8z M890.2,560.8h14.1v170.7h-14.1V560.8z M906.3,560.8h14.1v170.7h-14.1&#10;&#9;&#9;&#9;&#9;V560.8z M922.4,560.8H937l-0.4,170.7h-14.2V560.8z M939,560.8h12.1v170.7h-12.5L939,560.8z M953.1,560.8h12.4v170.7h-12.4V560.8z&#10;&#9;&#9;&#9;&#9; M967.5,560.8h11.4v170.7h-11.4V560.8z M980.9,560.8h17.5v77.8h-9.8v92.9h-7.8V560.8z M1000.4,560.8h12.6v77.8h-12.6V560.8z&#10;&#9;&#9;&#9;&#9; M1015.1,560.8h9.2v66h11.2v11.7h-20.4V560.8z M1037.5,626.8h11.6v11.7h-11.6V626.8z M1051.1,626.8h11.2v11.7h-11.2V626.8z&#10;&#9;&#9;&#9;&#9; M1064.3,626.8h10.3v11.7h-10.3V626.8z M1088.2,624.8h-11.5v-90.4h11.5V624.8z M1088.2,472.2v60.2h-11.5v-60.2H1088.2z&#10;&#9;&#9;&#9;&#9; M1074.7,472.2v60.2h-10.3v-60.2H1074.7z M1062.3,472.2v60.2h-24.8v-60.2H1062.3z M1035.5,472.2v60.2h-20.4v-60.2H1035.5z&#10;&#9;&#9;&#9;&#9; M1013.1,472.2v60.2h-12.6v-60.2H1013.1z M998.4,472.2v60.2h-17.5v-26.7c4.9-0.5,8.8-4.7,8.8-9.7c0-5.4-4.4-9.8-9.8-9.8&#10;&#9;&#9;&#9;&#9;c-5.4,0-9.8,4.4-9.8,9.8c0,5,3.8,9.2,8.8,9.7v26.7h-11.4v-60.2H998.4z M979.9,500.7c-2.6,0-4.6-2.1-4.6-4.6s2.1-4.6,4.6-4.6&#10;&#9;&#9;&#9;&#9;c2.6,0,4.6,2.1,4.6,4.6S982.5,500.7,979.9,500.7z M965.5,472.2v60.2h-12.4v-60.2H965.5z M951.1,472.2v60.2H939l0.1-60.2H951.1z&#10;&#9;&#9;&#9;&#9; M937.2,472.2l-0.1,60.2h-14.7v-60.2H937.2z M920.4,472.2v60.2h-14.1v-60.2H920.4z M904.3,472.2v60.2h-14.1v-60.2H904.3z&#10;&#9;&#9;&#9;&#9; M888.2,472.2v60.2h-17v-60.2H888.2z M869.1,472.2v60.2h-9.7v-60.2H869.1z M857.4,380.3v90h-9v-90H857.4z M846.4,380.3v90h-12.6&#10;&#9;&#9;&#9;&#9;v-90H846.4z M831.8,368.8v9.4h-70.5v-9.4H831.8z M759.4,368.8v9.4h-85.1v-9.4H759.4z M656,368.8h16.3v9.4H656V368.8z M654,380.3&#10;&#9;&#9;&#9;&#9;v72.1h-24.2v-72.1H654z M627.7,380.3v72.1h-9.6v42.8h-16.3V380.3H627.7z M528.6,380.3h71.2v114.9h-9.7v-19.8c2.8-0.5,5-2.9,5-5.9&#10;&#9;&#9;&#9;&#9;c0-3.3-2.7-6-6-6c-3.3,0-6,2.7-6,6c0,3,2.2,5.4,5,5.9v19.8h-21.4v-79.9c4.9-0.5,8.8-4.7,8.8-9.7c0-5.4-4.4-9.8-9.8-9.8&#10;&#9;&#9;&#9;&#9;c-5.4,0-9.8,4.4-9.8,9.8c0,5,3.8,9.2,8.8,9.7v79.9H544v-5.1c2.8-0.5,5-2.9,5-5.9c0-3.3-2.7-6-6-6c-3.3,0-6,2.7-6,6&#10;&#9;&#9;&#9;&#9;c0,3,2.2,5.4,5,5.9v5.1h-13.4V380.3z M565.7,410.1c-2.6,0-4.6-2.1-4.6-4.6s2.1-4.6,4.6-4.6c2.6,0,4.6,2.1,4.6,4.6&#10;&#9;&#9;&#9;&#9;S568.2,410.1,565.7,410.1z M526.6,497.1v128.3H514V497.1H526.6z M500.3,497.1H512v128.3h-11.7V497.1z M498.3,627.4v45h-11.4v-45&#10;&#9;&#9;&#9;&#9;H498.3z M484.9,627.4v45h-14.8v-45H484.9z M468.1,627.4v45h-18.5v-45H468.1z M428.6,538.8v88.6h19v45h-11.9V661&#10;&#9;&#9;&#9;&#9;c4.9-0.5,8.8-4.7,8.8-9.7c0-5.4-4.4-9.8-9.8-9.8s-9.8,4.4-9.8,9.8c0,5,3.8,9.2,8.8,9.7v11.4h-14.8V538.8H428.6z M434.7,655.9&#10;&#9;&#9;&#9;&#9;c-2.6,0-4.6-2.1-4.6-4.6c0-2.6,2.1-4.6,4.6-4.6c2.6,0,4.6,2.1,4.6,4.6C439.3,653.8,437.2,655.9,434.7,655.9z M416.8,538.8v133.6&#10;&#9;&#9;&#9;&#9;H406v-94.6c2.8-0.5,5-2.9,5-5.9c0-3.3-2.7-6-6-6c-3.3,0-6,2.7-6,6c0,3,2.2,5.4,5,5.9v94.6h-10.8V538.8H416.8z M391.2,538.8v133.6&#10;&#9;&#9;&#9;&#9;h-16.5V538.8H391.2z M372.7,538.8v133.6h-12.4V538.8H372.7z M358.3,462.7v74.1h-10.4v-74.1H358.3z M345.9,462.7v74.1h-35.3v-74.1&#10;&#9;&#9;&#9;&#9;H345.9z M308.5,462.7v74.1H291v-57.3h-18.5v-16.8H308.5z M270.5,462.7v16.8h-11.2v-16.8H270.5z M224.9,462.7h32.4v16.8h-32.4&#10;&#9;&#9;&#9;&#9;V462.7z M222.9,481.5v55.3H212v-55.3H222.9z M210,481.5v55.3h-11.9v-55.3H210z M196.1,481.5v55.3h-19.8v-55.3H196.1z&#10;&#9;&#9;&#9;&#9; M174.2,481.5v55.3h-16.9v-55.3H174.2z M155.3,481.5v55.3h-16.1v-55.3H155.3z M137.3,481.5v55.3H97.2v95.9H92V481.5H137.3z&#10;&#9;&#9;&#9;&#9; M90,481.5v151.2H76.3V523.4c2.8-0.5,5-2.9,5-5.9c0-3.3-2.7-6-6-6c-3.3,0-6,2.7-6,6c0,3,2.2,5.4,5,5.9v109.3H56.6V481.5H90z&#10;&#9;&#9;&#9;&#9; M54.6,481.5v151.2h-24V481.5H54.6z M12.5,481.5h16.1v151.2H12.5V481.5z M12.5,634.7h16.1v66.8H12.5V634.7z M12.5,703.5h16.1&#10;&#9;&#9;&#9;&#9;v25.1H12.5V703.5z M12.5,749.1v-18.5h16.1v18.5H12.5z M30.6,749.1v-18.5h24v18.5H30.6z M56.6,749.1v-18.5h17.8v18.5H56.6z&#10;&#9;&#9;&#9;&#9; M76.3,749.1v-18.5H90v18.5H76.3z M92,749.1v-18.5h22.9v18.5H92z M116.8,749.1v-18.5h20.4v18.5H116.8z M139.3,749.1v-18.5h16.1&#10;&#9;&#9;&#9;&#9;v18.5H139.3z M157.3,749.1v-18.5h16.9v18.5H157.3z M176.2,749.1v-18.5h19.8v18.5H176.2z M198.1,749.1v-18.5H210v18.5H198.1z&#10;&#9;&#9;&#9;&#9; M212,749.1v-18.5H230v-36.8h11.2v55.3H212z M243.2,749.1v-55.3h14.1v55.3H243.2z M259.3,749.1v-55.3h11.2v55.3H259.3z&#10;&#9;&#9;&#9;&#9; M272.5,749.1v-55.3h36.1v55.3H272.5z M310.5,749.1v-55.3h8.2v55.3H310.5z M320.8,749.1v-55.3H332v55.3H320.8z M334,749.1v-55.3&#10;&#9;&#9;&#9;&#9;h11.9v55.3H334z M347.9,749.1v-55.3h10.4v22.9h14.4v32.4H347.9z M374.7,749.1v-32.4h16.5v32.4H374.7z M393.2,749.1v-32.4H404&#10;&#9;&#9;&#9;&#9;v32.4H393.2z M406,749.1v-32.4h10.8v32.4H406z M418.8,749.1v-32.4h14.8v32.4H418.8z M435.7,749.1v-32.4h11.9v32.4H435.7z&#10;&#9;&#9;&#9;&#9; M449.6,749.1v-32.4h18.5v32.4H449.6z M470.1,749.1v-32.4h14.8v32.4H470.1z M486.9,749.1v-32.4H512v32.4H486.9z M514,749.1v-32.4&#10;&#9;&#9;&#9;&#9;h28v32.4H514z M544,749.1v-32.4h10v32.4H544z M555.9,749.1v-32.4h8.7v32.4H555.9z M566.7,749.1v-32.4h10.7v32.4H566.7z&#10;&#9;&#9;&#9;&#9; M579.4,749.1v-32.4h8.7v32.4H579.4z M590.1,749.1v-32.4h9.7v32.4H590.1z M618.1,749.1h-16.3v-32.4h16.3V749.1z M620.1,714.7&#10;&#9;&#9;&#9;&#9;v-69.9h7.6v69.9H620.1z M629.7,714.7v-69.9h14v69.9H629.7z M660.6,714.7h-14.8v-69.9h14.8V714.7z M662.6,642.8v-82h9.7v82H662.6z&#10;&#9;&#9;&#9;&#9; M674.3,642.8v-82h9.1v82H674.3z M685.4,642.8v-82h27.2v82H685.4z M727.7,642.8v-45.3c4.9-0.5,8.8-4.7,8.8-9.7&#10;&#9;&#9;&#9;&#9;c0-5.4-4.4-9.8-9.8-9.8s-9.8,4.4-9.8,9.8c0,5,3.8,9.2,8.8,9.7v45.3h-11.2v-82h28.7v82H727.7z M726.7,592.4&#10;&#9;&#9;&#9;&#9;c-2.6,0-4.6-2.1-4.6-4.6c0-2.6,2.1-4.6,4.6-4.6s4.6,2.1,4.6,4.6C731.3,590.3,729.2,592.4,726.7,592.4z M745.3,642.8v-82h14.1v82&#10;&#9;&#9;&#9;&#9;H745.3z M761.4,642.8v-82h10.4v82H761.4z M773.8,731.5v-86.7h11.9v86.7H773.8z M800.9,731.5v-64.2c2.8-0.5,5-2.9,5-5.9&#10;&#9;&#9;&#9;&#9;c0-3.3-2.7-6-6-6c-3.3,0-6,2.7-6,6c0,3,2.2,5.4,5,5.9v64.2h-11.2v-86.7h10.2V534.4H812v197.1H800.9z M814,731.5V534.4h17.8v197.1&#10;&#9;&#9;&#9;&#9;H814z M833.8,764.4v-30.9h12.6v30.9H833.8z M848.4,764.4v-30.9h20.7v30.9H848.4z M871.1,764.4v-30.9h17v30.9H871.1z M890.2,764.4&#10;&#9;&#9;&#9;&#9;v-30.9h14.1v30.9H890.2z M906.3,764.4v-30.9h14.1v30.9H906.3z M922.4,764.4v-30.9h14.2l-0.1,30.9H922.4z M938.5,764.4l0.1-30.9&#10;&#9;&#9;&#9;&#9;h12.5v30.9H938.5z M953.1,764.4v-30.9h12.4v30.9H953.1z M967.5,764.4v-30.9h11.4v30.9H967.5z M980.9,764.4v-30.9h9.8v-92.9h7.8&#10;&#9;&#9;&#9;&#9;v123.9H980.9z M1000.4,764.4V640.6h12.6v123.9H1000.4z M1015.1,764.4V640.6h20.4v123.9H1015.1z M1037.5,764.4V640.6h11.6v123.9&#10;&#9;&#9;&#9;&#9;H1037.5z M1051.1,764.4V640.6h11.2v123.9H1051.1z M1064.3,764.4V640.6h10.3v123.9H1064.3z M1076.7,764.4V640.6h11.5v123.9H1076.7&#10;&#9;&#9;&#9;&#9;z" transform="matrix(1, 0, 0, 1, 0, 0)"/><path d="M 0 0 H 1096 V 780 H 0 V 0 Z" clip-path="url(#SVGID_2_)" fill="none" transform="matrix(1, 0, 0, 1, 0, 0)"/>

</svg>